Coordinates
version=1
nRows=5
nColumns=40
inDegrees=yes

Units are S.I. units (second, meters, Newtons, ...)
If the header above contains a line with 'inDegrees', this indicates whether rotational values are in degrees (yes) or radians (no).

endheader
time	pelvis_tilt	pelvis_list	pelvis_rotation	pelvis_tx	pelvis_ty	pelvis_tz	hip_flexion_r	hip_adduction_r	hip_rotation_r	knee_angle_r	knee_angle_r_beta	ankle_angle_r	subtalar_angle_r	mtp_angle_r	hip_flexion_l	hip_adduction_l	hip_rotation_l	knee_angle_l	knee_angle_l_beta	ankle_angle_l	subtalar_angle_l	mtp_angle_l	lumbar_extension	lumbar_bending	lumbar_rotation	arm_flex_r	arm_add_r	arm_rot_r	elbow_flex_r	pro_sup_r	wrist_flex_r	wrist_dev_r	arm_flex_l	arm_add_l	arm_rot_l	elbow_flex_l	pro_sup_l	wrist_flex_l	wrist_dev_l
      1.29000000	      0.33112124	    -12.37598318	     89.87506078	      0.23669347	      0.96711183	     -0.64753452	     14.92205222	      4.04630114	     -1.68189708	     13.44042972	      0.23457975	      3.93971910	      0.00000000	      0.00000000	     32.39618903	     -1.45177380	     -4.39239958	     48.26400361	      0.84236577	      2.49497179	      0.00000000	      0.00000000	      4.77569984	     -0.65283436	      5.45651332	      0.00000000	      0.00000000	      0.00000000	      0.00000000	      0.00000000	      0.00000000	      0.00000000	      0.00000000	      0.00000000	      0.00000000	      0.00000000	      0.00000000	      0.00000000	      0.00000000
      1.30000000	      0.05541726	    -12.30725144	     89.86972392	      0.23688977	      0.96756916	     -0.66725965	     12.82910207	      3.82040226	     -1.53327501	     12.04476824	      0.21022086	      4.12560384	      0.00000000	      0.00000000	     33.39227196	     -1.02809246	     -4.42621601	     44.76787503	      0.78134682	      2.89617133	      0.00000000	      0.00000000	      4.61881688	     -1.05713193	      5.59709348	      0.00000000	      0.00000000	      0.00000000	      0.00000000	      0.00000000	      0.00000000	      0.00000000	      0.00000000	      0.00000000	      0.00000000	      0.00000000	      0.00000000	      0.00000000	      0.00000000
      1.31000000	     -0.15387038	    -12.37021428	     89.85791417	      0.23710486	      0.96705312	     -0.68695737	     10.94706459	      3.67552439	     -1.33318985	     10.78979340	      0.18831742	      4.38654559	      0.00000000	      0.00000000	     34.42721918	     -0.69649633	     -4.47301583	     41.04457667	      0.71636300	      3.24665890	      0.00000000	      0.00000000	      4.62603542	     -1.39291466	      5.74011712	      0.00000000	      0.00000000	      0.00000000	      0.00000000	      0.00000000	      0.00000000	      0.00000000	      0.00000000	      0.00000000	      0.00000000	      0.00000000	      0.00000000	      0.00000000	      0.00000000
      1.32000000	     -0.29770625	    -12.34407808	     89.84632829	      0.23731772	      0.96590701	     -0.70671672	      8.98069975	      3.59924025	     -1.13885056	      9.56402605	      0.16692374	      4.65056749	      0.00000000	      0.00000000	     35.25534876	     -0.44786182	     -4.55236751	     37.10297114	      0.64756901	      3.48521878	      0.00000000	      0.00000000	      4.51183148	     -1.63984252	      5.86156919	      0.00000000	      0.00000000	      0.00000000	      0.00000000	      0.00000000	      0.00000000	      0.00000000	      0.00000000	      0.00000000	      0.00000000	      0.00000000	      0.00000000	      0.00000000	      0.00000000
      1.33000000	     -0.33413347	    -12.25645145	     89.82707143	      0.23754288	      0.96412443	     -0.72658881	      6.96241150	      3.63798504	     -1.00598014	      8.37706631	      0.14620739	      4.93734345	      0.00000000	      0.00000000	     35.92850571	     -0.32940327	     -4.68453947	     33.01883011	      0.57628730	      3.67856810	      0.00000000	      0.00000000	      4.33351414	     -1.77198156	      5.99135938	      0.00000000	      0.00000000	      0.00000000	      0.00000000	      0.00000000	      0.00000000	      0.00000000	      0.00000000	      0.00000000	      0.00000000	      0.00000000	      0.00000000	      0.00000000	      0.00000000
